<svg width="16" height="16" viewBox="0 0 16 16" fill="none" xmlns="http://www.w3.org/2000/svg">
<g clip-path="url(#clip0_159_2)">
<path d="M13.16 5.55337L9.53335 1.55337C9.47102 1.48431 9.39493 1.42906 9.30997 1.39117C9.225 1.35328 9.13305 1.33359 9.04002 1.33337H4.37335C4.15185 1.33073 3.932 1.37175 3.72635 1.45408C3.52071 1.53641 3.33329 1.65844 3.17481 1.81321C3.01633 1.96798 2.88988 2.15245 2.8027 2.35608C2.71552 2.55972 2.6693 2.77854 2.66669 3.00004V13C2.6693 13.2215 2.71552 13.4404 2.8027 13.644C2.88988 13.8476 3.01633 14.0321 3.17481 14.1869C3.33329 14.3416 3.52071 14.4637 3.72635 14.546C3.932 14.6283 4.15185 14.6693 4.37335 14.6667H11.6267C11.8482 14.6693 12.068 14.6283 12.2737 14.546C12.4793 14.4637 12.6668 14.3416 12.8252 14.1869C12.9837 14.0321 13.1102 13.8476 13.1973 13.644C13.2845 13.4404 13.3307 13.2215 13.3334 13V6.00004C13.3329 5.83481 13.2712 5.67564 13.16 5.55337ZM11.7667 6.00004H9.14002C9.00258 5.9865 8.87596 5.91953 8.78743 5.81354C8.69889 5.70755 8.65553 5.57102 8.66669 5.43337V2.66671H8.74002L11.7667 6.00004ZM11.6267 13.3334H4.37335C4.32694 13.3361 4.28044 13.3296 4.23654 13.3143C4.19263 13.299 4.15218 13.2752 4.11749 13.2442C4.08281 13.2132 4.05458 13.1757 4.03442 13.1338C4.01426 13.0919 4.00257 13.0465 4.00002 13V3.00004C4.00257 2.95361 4.01426 2.90815 4.03442 2.86625C4.05458 2.82435 4.08281 2.78684 4.11749 2.75588C4.15218 2.72491 4.19263 2.70109 4.23654 2.68579C4.28044 2.67049 4.32694 2.664 4.37335 2.66671H7.33335V5.43337C7.32259 5.92445 7.50652 6.39986 7.845 6.75582C8.18348 7.11178 8.64902 7.31941 9.14002 7.33337H12V13C11.9975 13.0465 11.9858 13.0919 11.9656 13.1338C11.9455 13.1757 11.9172 13.2132 11.8825 13.2442C11.8479 13.2752 11.8074 13.299 11.7635 13.3143C11.7196 13.3296 11.6731 13.3361 11.6267 13.3334Z" fill="#7C7C7C"/>
<rect x="5" y="8" width="6" height="0.5" rx="0.25" fill="#7C7C7C"/>
<rect x="5" y="10" width="6" height="0.5" rx="0.25" fill="#7C7C7C"/>
<rect x="5" y="9" width="2" height="0.5" rx="0.25" fill="#7C7C7C"/>
<rect x="5" y="11" width="3" height="0.5" rx="0.25" fill="#7C7C7C"/>
<rect x="8" y="9" width="2" height="0.5" rx="0.25" fill="#7C7C7C"/>
<rect x="9" y="11" width="2" height="0.5" rx="0.25" fill="#7C7C7C"/>
<rect x="5" y="12" width="4" height="0.5" rx="0.25" fill="#7C7C7C"/>
</g>
<defs>
<clipPath id="clip0_159_2">
<rect width="16" height="16" fill="white"/>
</clipPath>
</defs>
</svg>
