<svg width="16" height="16" viewBox="0 0 16 16" fill="none" xmlns="http://www.w3.org/2000/svg">
<g clip-path="url(#clip0_161_13)">
<path d="M8.00002 1.33337C6.59472 1.3333 5.24619 1.88788 4.24752 2.87657C3.24884 3.86526 2.68074 5.20815 2.66669 6.61337C2.66669 10.2667 7.36669 14.3334 7.56669 14.5067C7.68744 14.61 7.84112 14.6668 8.00002 14.6668C8.15892 14.6668 8.3126 14.61 8.43335 14.5067C8.66669 14.3334 13.3334 10.2667 13.3334 6.61337C13.3193 5.20815 12.7512 3.86526 11.7525 2.87657C10.7539 1.88788 9.40532 1.3333 8.00002 1.33337ZM8.00002 13.1C6.88669 12.04 4.00002 9.10004 4.00002 6.61337C4.00002 5.55251 4.42145 4.53509 5.17159 3.78495C5.92174 3.0348 6.93915 2.61337 8.00002 2.61337C9.06089 2.61337 10.0783 3.0348 10.8284 3.78495C11.5786 4.53509 12 5.55251 12 6.61337C12 9.08004 9.11335 12.04 8.00002 13.1Z" fill="#7C7C7C"/>
<path d="M8.00002 4C7.53853 4 7.08741 4.13685 6.70369 4.39324C6.31998 4.64963 6.02091 5.01404 5.8443 5.44041C5.6677 5.86677 5.62149 6.33592 5.71152 6.78854C5.80155 7.24117 6.02378 7.65693 6.35011 7.98325C6.67643 8.30957 7.09219 8.5318 7.54481 8.62183C7.99743 8.71186 8.46659 8.66566 8.89295 8.48905C9.31931 8.31245 9.68373 8.01338 9.94012 7.62966C10.1965 7.24595 10.3334 6.79482 10.3334 6.33333C10.3334 5.71449 10.0875 5.121 9.64994 4.68342C9.21235 4.24583 8.61886 4 8.00002 4ZM8.00002 7.33333C7.80224 7.33333 7.6089 7.27468 7.44445 7.1648C7.28 7.05492 7.15183 6.89874 7.07614 6.71602C7.00045 6.53329 6.98065 6.33222 7.01924 6.13824C7.05782 5.94426 7.15306 5.76608 7.29291 5.62623C7.43277 5.48637 7.61095 5.39113 7.80493 5.35255C7.99891 5.31396 8.19998 5.33377 8.38271 5.40945C8.56543 5.48514 8.72161 5.61331 8.83149 5.77776C8.94137 5.94221 9.00002 6.13555 9.00002 6.33333C9.00002 6.59855 8.89466 6.8529 8.70713 7.04044C8.51959 7.22798 8.26524 7.33333 8.00002 7.33333Z" fill="#7C7C7C"/>
</g>
<defs>
<clipPath id="clip0_161_13">
<rect width="16" height="16" fill="white"/>
</clipPath>
</defs>
</svg>
