<svg width="16" height="16" viewBox="0 0 16 16" fill="none" xmlns="http://www.w3.org/2000/svg">
<g clip-path="url(#clip0_161_19)">
<path d="M11.3334 1.33337H4.66669C4.13625 1.33337 3.62755 1.54409 3.25247 1.91916C2.8774 2.29423 2.66669 2.80294 2.66669 3.33337V12.6667C2.66669 13.1971 2.8774 13.7058 3.25247 14.0809C3.62755 14.456 4.13625 14.6667 4.66669 14.6667H11.3334C11.8638 14.6667 12.3725 14.456 12.7476 14.0809C13.1226 13.7058 13.3334 13.1971 13.3334 12.6667V3.33337C13.3334 2.80294 13.1226 2.29423 12.7476 1.91916C12.3725 1.54409 11.8638 1.33337 11.3334 1.33337ZM12 12.6667C12 12.8435 11.9298 13.0131 11.8048 13.1381C11.6797 13.2631 11.5102 13.3334 11.3334 13.3334H4.66669C4.48988 13.3334 4.32031 13.2631 4.19528 13.1381C4.07026 13.0131 4.00002 12.8435 4.00002 12.6667V3.33337C4.00002 3.15656 4.07026 2.98699 4.19528 2.86197C4.32031 2.73695 4.48988 2.66671 4.66669 2.66671H11.3334C11.5102 2.66671 11.6797 2.73695 11.8048 2.86197C11.9298 2.98699 12 3.15656 12 3.33337V12.6667Z" fill="#7C7C7C"/>
<path d="M10 7.57868V6.83264C10 6.5995 9.82669 6.38634 9.51433 6.22648C9.22175 6.07993 8.829 6 8.41647 6C7.57759 6 6.90544 6.32639 6.83888 6.75937C6.3196 6.89925 6 7.17902 6 7.49875V8.25146C6 8.4846 6.17331 8.69775 6.48567 8.85762C6.59242 8.91091 6.70511 8.95087 6.83163 8.99084V9.16403C6.83163 9.39717 7.00494 9.61032 7.3173 9.77019C7.9229 10.0766 8.90148 10.0766 9.50708 9.77019C9.8201 9.61699 9.99275 9.39717 9.99275 9.16403V8.41132C9.99275 8.26478 9.9196 8.11823 9.78649 7.99833C9.92619 7.87177 9.99934 7.73189 9.99934 7.57868H10ZM9.83328 7.57868C9.83328 7.93838 9.18748 8.2448 8.41582 8.2448C7.64415 8.2448 6.99835 7.93838 6.99835 7.57868V7.20566C7.05173 7.25895 7.1117 7.31224 7.17825 7.35221C7.89061 7.81848 9.32125 7.73855 9.82735 7.20566V7.57868H9.83394H9.83328ZM8.42241 6.16653C9.18748 6.16653 9.83328 6.47294 9.83328 6.83264C9.83328 6.96586 9.74036 7.0791 9.65997 7.14571C9.52026 7.26561 9.314 7.35887 9.06096 7.42548C8.86129 7.47877 8.64185 7.49875 8.41516 7.49875C7.90247 7.49875 7.42339 7.36553 7.17035 7.14571C7.11697 7.09908 7.06359 7.03913 7.03064 6.97252C6.84415 6.55287 7.55651 6.16653 8.42175 6.16653H8.42241ZM6.83888 6.93922V7.58535C6.83888 7.79184 6.97858 7.98501 7.22504 8.13822C6.85206 8.08493 6.51928 7.96503 6.34662 7.81848C6.26689 7.74521 6.17331 7.63197 6.17331 7.49875C6.17331 7.27227 6.43295 7.05912 6.83888 6.93922ZM6.17331 8.2448V7.87177C6.19308 7.89176 6.21351 7.91174 6.23328 7.93172C6.5061 8.16486 7.08534 8.32473 7.67051 8.32473C7.68369 8.32473 7.69028 8.32473 7.69687 8.31807C8.12916 8.43131 8.63526 8.43131 9.06096 8.33805C8.90807 8.74438 7.86293 9.05079 6.95815 8.83764C6.94498 8.83097 6.92521 8.82431 6.90478 8.82431C6.47908 8.71774 6.17265 8.49792 6.17265 8.2448H6.17331ZM9.83328 9.16403C9.83328 9.52373 9.18748 9.83014 8.41582 9.83014C7.64415 9.83014 6.99835 9.52373 6.99835 9.16403V9.02415C7.13806 9.05079 7.29094 9.07077 7.45107 9.07744C7.73048 9.19067 8.06326 9.24396 8.41582 9.24396C8.97463 9.24396 9.48072 9.09742 9.76672 8.85096C9.78649 8.83097 9.81351 8.81099 9.82669 8.79101V9.16403H9.83328ZM9.66063 8.7244C9.40758 8.94421 8.9285 9.07744 8.41582 9.07744C8.27611 9.07744 8.143 9.06411 8.00988 9.05079C8.26952 9.01749 8.51598 8.94421 8.72224 8.85096C9.04185 8.70441 9.22834 8.50458 9.24811 8.29142C9.38781 8.2448 9.5341 8.18485 9.66063 8.09825C9.89325 8.30475 9.88666 8.53122 9.66063 8.7244Z" fill="#7C7C7C"/>
<rect x="5" y="11" width="3" height="0.5" rx="0.25" fill="#7C7C7C"/>
<rect x="9" y="11" width="2" height="0.5" rx="0.25" fill="#7C7C7C"/>
<rect x="5" y="12" width="4" height="0.5" rx="0.25" fill="#7C7C7C"/>
</g>
<defs>
<clipPath id="clip0_161_19">
<rect width="16" height="16" fill="white"/>
</clipPath>
</defs>
</svg>
